<?xml version="1.0" encoding="UTF-8"?><svg id="Layer_2" xmlns="http://www.w3.org/2000/svg" xmlns:xlink="http://www.w3.org/1999/xlink" viewBox="0 0 32 32"><defs><style>.cls-1{fill:#fff;}.cls-2{fill:#1d1d1b;}</style><symbol id="FS_1" viewBox="0 0 33.93 54.44"><polygon class="cls-1" points="24.15 12.44 16.91 24.99 12.38 16.93 16.97 8.98 19.66 13.82 22.24 9.03 19.66 4.66 19.45 4.3 16.97 0 14.47 4.31 0 29.38 14.47 54.44 19.66 54.44 12.38 41.82 14.77 37.68 12.18 33.18 9.78 37.33 5.19 29.38 7.49 25.4 7.56 25.27 9.78 21.42 14.47 29.55 16.82 33.61 16.84 33.65 16.97 33.87 17.12 34.13 19.36 29.72 24.15 21.42 28.75 29.38 26.45 33.36 26.38 33.48 24.15 37.33 21.93 33.35 19.28 37.87 24 46.06 24.06 46.14 24.15 46.3 24.25 46.14 33.93 29.38 24.15 12.44"/></symbol></defs><g id="Layer_1-2"><rect class="cls-2" width="32" height="32"/><use width="33.93" height="54.44" transform="translate(7.5 2.36) scale(.5)" xlink:href="#FS_1"/></g></svg>